# xmcd
#
# Track frame offsets:
#	175
#	14400
#	26330
#	39177
#	51182
#	63152
#	75475
#	89535
#	112570
#	124312
#	137915
#	150412
#	160562
#	171817
#	185747
#	198385
#	211352
#	223742
#	238422
#	249467
#	259187
#	269490
#	283775
#	304022
#
# Disc length: 4294
#
# Revision: 6
# Processed by: cddbd v1.5.1PL0 Copyright (c) Steve Scherf et al.
# Submitted via: ExactAudioCopy v0.90b4
# Normalized: r5:DSETVAR1
#
DISCID=5010c418
DTITLE=Various Artist - Woke Up This Morning
DYEAR=1993
DGENRE=Blues
TTITLE0=Howlin' Wolf - Smokestack Lightnin'
TTITLE1=Little Walter - My Babe
TTITLE2=Tommy Tucker - High Heeled Sneakers
TTITLE3=Louis Jordan - Slow Down
TTITLE4=Little Milton - We're Gonna Make It
TTITLE5=Lohn Lee Hooker - I'm In The Mood
TTITLE6=Sonny Boy Williamson - Help Me
TTITLE7=B.B. King - The Thrill Is Gone
TTITLE8=Etta James - I'd Rather Go Blind
TTITLE9=Koko Taylor - Wang Dang Doodle
TTITLE10=Muddy Waters - I'm You Hoochie Coochie Man
TTITLE11=Chuck Berry - Down The Road Apiece
TTITLE12=Bo Diddley - Bo Diddley
TTITLE13=Willie Dixon - Walkin' The Blues
TTITLE14=Jimmy Rogers - Walking By Myself
TTITLE15=Jimmy Witherspoon - When The Lights Go Out
TTITLE16=Elmore James - The Sun Is Shining
TTITLE17=Bobby Bland - Stormy Monday Blues
TTITLE18=Howlin' Wolf - Little Red Rooster
TTITLE19=Chuck Berry - Confessin' The Blues
TTITLE20=Buddy Guy - First Time I Met The Blues
TTITLE21=Lowell Fulson - Reconsider Baby
TTITLE22=John Lee Hooker - This Land Is Nobody's Land
TTITLE23=B.B. King - Many Miles Travelled
EXTD=
EXTT0=
EXTT1=
EXTT2=
EXTT3=
EXTT4=
EXTT5=
EXTT6=
EXTT7=
EXTT8=
EXTT9=
EXTT10=
EXTT11=
EXTT12=
EXTT13=
EXTT14=
EXTT15=
EXTT16=
EXTT17=
EXTT18=
EXTT19=
EXTT20=
EXTT21=
EXTT22=
EXTT23=
PLAYORDER=
